<svg xmlns="http://www.w3.org/2000/svg" width="1370" height="1091" viewBox="0 0 1370.2 1091.0">
<rect width="1370" height="1091" fill="white"/>
<defs>
  <marker id="ah" markerWidth="5.0" markerHeight="5.0" refX="5.0" refY="2.5" orient="auto"><polygon points="0 0,5.0 2.5,0 5.0" fill="#666"/></marker>
</defs>
<text x="685.1" y="38.0" font-family="sans-serif" font-size="18" font-weight="bold" text-anchor="middle">TouchWhereApplication</text>
<rect x="2.0" y="56.0" width="1001.2" height="242.0" rx="6" fill="none" stroke="#999" stroke-width="1" stroke-dasharray="6,3"/>
<text x="502.6" y="71.0" font-family="sans-serif" font-size="12" text-anchor="middle" fill="#555">SingletonC [Singleton]</text>
<rect x="2.0" y="318.0" width="475.0" height="155.0" rx="6" fill="none" stroke="#999" stroke-width="1" stroke-dasharray="6,3"/>
<text x="239.5" y="333.0" font-family="sans-serif" font-size="12" text-anchor="middle" fill="#555">ActivityRetainedC [ActivityRetainedScoped]</text>
<rect x="534.4" y="758.0" width="833.8" height="118.0" rx="6" fill="none" stroke="#999" stroke-width="1" stroke-dasharray="6,3"/>
<text x="951.3" y="773.0" font-family="sans-serif" font-size="12" text-anchor="middle" fill="#555">ServiceC [ServiceScoped]</text>
<rect x="2.0" y="896.0" width="728.8" height="155.0" rx="6" fill="none" stroke="#999" stroke-width="1" stroke-dasharray="6,3"/>
<text x="366.4" y="911.0" font-family="sans-serif" font-size="12" text-anchor="middle" fill="#555">ActivityC [ActivityScoped]</text>
<rect x="2.0" y="493.0" width="246.0" height="144.0" rx="6" fill="none" stroke="#999" stroke-width="1" stroke-dasharray="6,3"/>
<text x="125.0" y="508.0" font-family="sans-serif" font-size="12" text-anchor="middle" fill="#555">ViewModelC [ViewModelScoped]</text>
<rect x="2.0" y="657.0" width="518.4" height="81.0" rx="6" fill="none" stroke="#999" stroke-width="1" stroke-dasharray="6,3"/>
<text x="261.2" y="672.0" font-family="sans-serif" font-size="12" text-anchor="middle" fill="#555">FragmentC [FragmentScoped]</text>
<path d="M87.4,143.5 C174.1,143.5 193.3,205.5 280.0,205.5" fill="none" stroke="#666" stroke-width="1" marker-end="url(#ah)"/>
<path d="M87.4,180.5 C174.1,180.5 193.3,242.5 280.0,242.5" fill="none" stroke="#666" stroke-width="1" marker-end="url(#ah)"/>
<path d="M87.4,405.5 C174.1,405.5 193.3,424.0 280.0,424.0" fill="none" stroke="#666" stroke-width="1" marker-end="url(#ah)"/>
<path d="M483.8,946.5 C514.7,946.5 521.5,983.5 552.4,983.5" fill="none" stroke="#666" stroke-width="1" marker-end="url(#ah)"/>
<path d="M459.0,387.0 C501.0,387.0 510.4,983.5 552.4,983.5" fill="none" stroke="#666" stroke-width="1" marker-end="url(#ah)"/>
<path d="M87.4,368.5 C174.1,368.5 193.3,387.0 280.0,387.0" fill="none" stroke="#666" stroke-width="1" marker-end="url(#ah)"/>
<path d="M87.4,965.0 C174.1,965.0 193.3,983.5 280.0,983.5" fill="none" stroke="#666" stroke-width="1" marker-end="url(#ah)"/>
<path d="M87.4,1002.0 C174.1,1002.0 193.3,1020.5 280.0,1020.5" fill="none" stroke="#666" stroke-width="1" marker-end="url(#ah)"/>
<path d="M87.4,707.5 C174.1,707.5 193.3,707.5 280.0,707.5" fill="none" stroke="#666" stroke-width="1" marker-end="url(#ah)"/>
<path d="M1189.4,845.5 C1211.9,845.5 1216.9,827.0 1239.4,827.0" fill="none" stroke="#666" stroke-width="1" marker-end="url(#ah)"/>
<path d="M1170.8,808.5 C1201.7,808.5 1208.5,827.0 1239.4,827.0" fill="none" stroke="#666" stroke-width="1" marker-end="url(#ah)"/>
<path d="M898.4,224.0 C960.0,224.0 973.6,845.5 1035.2,845.5" fill="none" stroke="#666" stroke-width="1" marker-end="url(#ah)"/>
<path d="M985.2,187.0 C1007.7,187.0 1012.7,845.5 1035.2,845.5" fill="none" stroke="#666" stroke-width="1" marker-end="url(#ah)"/>
<path d="M948.0,827.0 C987.2,827.0 996.0,845.5 1035.2,845.5" fill="none" stroke="#666" stroke-width="1" marker-end="url(#ah)"/>
<path d="M737.6,205.5 C762.9,205.5 768.5,224.0 793.8,224.0" fill="none" stroke="#666" stroke-width="1" marker-end="url(#ah)"/>
<path d="M347.4,131.5 C439.7,131.5 460.2,205.5 552.4,205.5" fill="none" stroke="#666" stroke-width="1" marker-end="url(#ah)"/>
<path d="M428.0,168.5 C484.0,168.5 496.4,205.5 552.4,205.5" fill="none" stroke="#666" stroke-width="1" marker-end="url(#ah)"/>
<path d="M180.4,106.5 C225.2,106.5 235.2,131.5 280.0,131.5" fill="none" stroke="#666" stroke-width="1" marker-end="url(#ah)"/>
<path d="M619.8,827.0 C698.1,827.0 715.5,827.0 793.8,827.0" fill="none" stroke="#666" stroke-width="1" marker-end="url(#ah)"/>
<path d="M904.6,150.0 C963.4,150.0 976.4,808.5 1035.2,808.5" fill="none" stroke="#666" stroke-width="1" marker-end="url(#ah)"/>
<path d="M985.2,187.0 C1007.7,187.0 1012.7,808.5 1035.2,808.5" fill="none" stroke="#666" stroke-width="1" marker-end="url(#ah)"/>
<path d="M743.8,168.5 C766.3,168.5 771.3,150.0 793.8,150.0" fill="none" stroke="#666" stroke-width="1" marker-end="url(#ah)"/>
<path d="M347.4,131.5 C439.7,131.5 460.2,168.5 552.4,168.5" fill="none" stroke="#666" stroke-width="1" marker-end="url(#ah)"/>
<path d="M428.0,168.5 C484.0,168.5 496.4,168.5 552.4,168.5" fill="none" stroke="#666" stroke-width="1" marker-end="url(#ah)"/>
<rect x="20.0" y="205.0" width="154.2" height="25.0" rx="3" fill="#F5F5F5" stroke="#333" stroke-width="0.8"/>
<text x="97.1" y="221.0" font-family="Helvetica,sans-serif" font-size="10" text-anchor="middle">TouchWhereApplication</text>
<rect x="20.0" y="242.0" width="203.8" height="38.0" rx="3" fill="#F5F5F5" stroke="#333" stroke-width="0.8"/>
<text x="121.9" font-family="Helvetica,sans-serif" font-size="10" text-anchor="middle"><tspan x="121.9" y="258.4">@DisableFragmentGetContextFix</tspan><tspan x="121.9" dy="13.0">Set&lt;Boolean&gt;</tspan></text>
<rect x="280.0" y="193.0" width="222.4" height="25.0" rx="3" fill="#FFF3E0" stroke="#333" stroke-width="0.8"/>
<text x="391.2" y="209.0" font-family="Helvetica,sans-serif" font-size="10" text-anchor="middle">ActivityRetainedComponentBuilder</text>
<rect x="20.0" y="131.0" width="67.4" height="25.0" rx="3" fill="#F5F5F5" stroke="#333" stroke-width="0.8"/>
<text x="53.7" y="147.0" font-family="Helvetica,sans-serif" font-size="10" text-anchor="middle">Builder</text>
<rect x="280.0" y="230.0" width="166.6" height="25.0" rx="3" fill="#FFF3E0" stroke="#333" stroke-width="0.8"/>
<text x="363.3" y="246.0" font-family="Helvetica,sans-serif" font-size="10" text-anchor="middle">ServiceComponentBuilder</text>
<rect x="20.0" y="168.0" width="67.4" height="25.0" rx="3" fill="#F5F5F5" stroke="#333" stroke-width="0.8"/>
<text x="53.7" y="184.0" font-family="Helvetica,sans-serif" font-size="10" text-anchor="middle">Builder</text>
<rect x="793.8" y="211.5" width="104.6" height="25.0" rx="3" fill="#E3F2FD" stroke="#333" stroke-width="0.8"/>
<text x="846.1" y="227.5" font-family="Helvetica,sans-serif" font-size="10" text-anchor="middle">ATTApiService</text>
<rect x="552.4" y="193.0" width="185.2" height="25.0" rx="3" fill="#E3F2FD" stroke="#333" stroke-width="0.8"/>
<text x="645.0" y="209.0" font-family="Helvetica,sans-serif" font-size="10" text-anchor="middle">@ThirdPartySttApi Retrofit</text>
<rect x="280.0" y="119.0" width="67.4" height="25.0" rx="3" fill="#E3F2FD" stroke="#333" stroke-width="0.8"/>
<text x="313.7" y="135.0" font-family="Helvetica,sans-serif" font-size="10" text-anchor="middle">Builder</text>
<rect x="20.0" y="94.0" width="160.4" height="25.0" rx="3" fill="#E3F2FD" stroke="#333" stroke-width="0.8"/>
<text x="100.2" y="110.0" font-family="Helvetica,sans-serif" font-size="10" text-anchor="middle">HttpLoggingInterceptor</text>
<rect x="280.0" y="156.0" width="148.0" height="25.0" rx="3" fill="#E3F2FD" stroke="#333" stroke-width="0.8"/>
<text x="354.0" y="172.0" font-family="Helvetica,sans-serif" font-size="10" text-anchor="middle">GsonConverterFactory</text>
<rect x="793.8" y="174.5" width="191.4" height="25.0" rx="3" fill="#E3F2FD" stroke="#333" stroke-width="0.8"/>
<text x="889.5" y="190.5" font-family="Helvetica,sans-serif" font-size="10" text-anchor="middle">@ApplicationContext Context</text>
<rect x="793.8" y="137.5" width="110.8" height="25.0" rx="3" fill="#E3F2FD" stroke="#333" stroke-width="0.8"/>
<text x="849.2" y="153.5" font-family="Helvetica,sans-serif" font-size="10" text-anchor="middle">ChatApiService</text>
<rect x="552.4" y="156.0" width="191.4" height="25.0" rx="3" fill="#E3F2FD" stroke="#333" stroke-width="0.8"/>
<text x="648.1" y="172.0" font-family="Helvetica,sans-serif" font-size="10" text-anchor="middle">@ThirdPartyChatApi Retrofit</text>
<rect x="280.0" y="411.5" width="172.8" height="25.0" rx="3" fill="#FFF3E0" stroke="#333" stroke-width="0.8"/>
<text x="366.4" y="427.5" font-family="Helvetica,sans-serif" font-size="10" text-anchor="middle">ActivityComponentBuilder</text>
<rect x="20.0" y="393.0" width="67.4" height="25.0" rx="3" fill="#F5F5F5" stroke="#333" stroke-width="0.8"/>
<text x="53.7" y="409.0" font-family="Helvetica,sans-serif" font-size="10" text-anchor="middle">Builder</text>
<rect x="20.0" y="430.0" width="179.0" height="25.0" rx="3" fill="#E3F2FD" stroke="#333" stroke-width="0.8"/>
<text x="109.5" y="446.0" font-family="Helvetica,sans-serif" font-size="10" text-anchor="middle">ActivityRetainedLifecycle</text>
<rect x="280.0" y="374.5" width="179.0" height="25.0" rx="3" fill="#FFF3E0" stroke="#333" stroke-width="0.8"/>
<text x="369.5" y="390.5" font-family="Helvetica,sans-serif" font-size="10" text-anchor="middle">ViewModelComponentBuilder</text>
<rect x="20.0" y="356.0" width="67.4" height="25.0" rx="3" fill="#F5F5F5" stroke="#333" stroke-width="0.8"/>
<text x="53.7" y="372.0" font-family="Helvetica,sans-serif" font-size="10" text-anchor="middle">Builder</text>
<rect x="1239.4" y="814.5" width="110.8" height="25.0" rx="3" fill="#F5F5F5" stroke="#333" stroke-width="0.8"/>
<text x="1294.8" y="830.5" font-family="Helvetica,sans-serif" font-size="10" text-anchor="middle">OverlayService</text>
<rect x="1035.2" y="833.0" width="154.2" height="25.0" rx="3" fill="#E8F5E9" stroke="#333" stroke-width="0.8"/>
<text x="1112.3" y="849.0" font-family="Helvetica,sans-serif" font-size="10" text-anchor="middle">AudioRecordRepository</text>
<rect x="793.8" y="814.5" width="154.2" height="25.0" rx="3" fill="#E3F2FD" stroke="#333" stroke-width="0.8"/>
<text x="870.9" y="830.5" font-family="Helvetica,sans-serif" font-size="10" text-anchor="middle">BubbleStateChangeable</text>
<rect x="552.4" y="814.5" width="67.4" height="25.0" rx="3" fill="#F5F5F5" stroke="#333" stroke-width="0.8"/>
<text x="586.1" y="830.5" font-family="Helvetica,sans-serif" font-size="10" text-anchor="middle">Service</text>
<rect x="1035.2" y="796.0" width="135.6" height="25.0" rx="3" fill="#E8F5E9" stroke="#333" stroke-width="0.8"/>
<text x="1103.0" y="812.0" font-family="Helvetica,sans-serif" font-size="10" text-anchor="middle">ChatRepositoryTest</text>
<rect x="552.4" y="971.0" width="160.4" height="25.0" rx="3" fill="#E8F5E9" stroke="#333" stroke-width="0.8"/>
<text x="632.6" y="987.0" font-family="Helvetica,sans-serif" font-size="10" text-anchor="middle">InternalFactoryFactory</text>
<rect x="280.0" y="934.0" width="203.8" height="25.0" rx="3" fill="#F5F5F5" stroke="#333" stroke-width="0.8"/>
<text x="381.9" y="950.0" font-family="Helvetica,sans-serif" font-size="10" text-anchor="middle">@KeySet Map&lt;Class&lt;?&gt;,Boolean&gt;</text>
<rect x="280.0" y="971.0" width="172.8" height="25.0" rx="3" fill="#FFF3E0" stroke="#333" stroke-width="0.8"/>
<text x="366.4" y="987.0" font-family="Helvetica,sans-serif" font-size="10" text-anchor="middle">FragmentComponentBuilder</text>
<rect x="20.0" y="952.5" width="67.4" height="25.0" rx="3" fill="#F5F5F5" stroke="#333" stroke-width="0.8"/>
<text x="53.7" y="968.5" font-family="Helvetica,sans-serif" font-size="10" text-anchor="middle">Builder</text>
<rect x="280.0" y="1008.0" width="148.0" height="25.0" rx="3" fill="#FFF3E0" stroke="#333" stroke-width="0.8"/>
<text x="354.0" y="1024.0" font-family="Helvetica,sans-serif" font-size="10" text-anchor="middle">ViewComponentBuilder</text>
<rect x="20.0" y="989.5" width="67.4" height="25.0" rx="3" fill="#F5F5F5" stroke="#333" stroke-width="0.8"/>
<text x="53.7" y="1005.5" font-family="Helvetica,sans-serif" font-size="10" text-anchor="middle">Builder</text>
<rect x="20.0" y="531.0" width="210.0" height="38.0" rx="3" fill="#F5F5F5" stroke="#333" stroke-width="0.8"/>
<text x="125.0" font-family="Helvetica,sans-serif" font-size="10" text-anchor="middle"><tspan x="125.0" y="547.4">@HiltViewModelMap Map&lt;Class&lt;?&gt;</tspan><tspan x="125.0" dy="13.0">,Provider&lt;ViewModel&gt;&gt;</tspan></text>
<rect x="20.0" y="581.0" width="203.8" height="38.0" rx="3" fill="#F5F5F5" stroke="#333" stroke-width="0.8"/>
<text x="121.9" font-family="Helvetica,sans-serif" font-size="10" text-anchor="middle"><tspan x="121.9" y="597.4">@HiltViewModelAssistedMap Map</tspan><tspan x="121.9" dy="13.0">&lt;Class&lt;?&gt;,Object&gt;</tspan></text>
<rect x="280.0" y="695.0" width="222.4" height="25.0" rx="3" fill="#FFF3E0" stroke="#333" stroke-width="0.8"/>
<text x="391.2" y="711.0" font-family="Helvetica,sans-serif" font-size="10" text-anchor="middle">ViewWithFragmentComponentBuilder</text>
<rect x="20.0" y="695.0" width="67.4" height="25.0" rx="3" fill="#F5F5F5" stroke="#333" stroke-width="0.8"/>
<text x="53.7" y="711.0" font-family="Helvetica,sans-serif" font-size="10" text-anchor="middle">Builder</text>
</svg>
