<?xml version="1.0" standalone="no"?>
<!DOCTYPE svg PUBLIC "-//W3C//DTD SVG 20010904//EN"
 "http://www.w3.org/TR/2001/REC-SVG-20010904/DTD/svg10.dtd">
<svg version="1.0" xmlns="http://www.w3.org/2000/svg"
 width="1024.000000pt" height="1024.000000pt" viewBox="0 0 1024.000000 1024.000000"
 preserveAspectRatio="xMidYMid meet">

<g transform="translate(0.000000,1024.000000) scale(0.100000,-0.100000)"
fill="#000000" stroke="none">
<path d="M4775 9584 c-429 -43 -716 -122 -1025 -281 l-145 -74 -85 17 c-99 19
-248 15 -345 -10 -80 -21 -264 -113 -348 -174 -113 -82 -244 -203 -453 -419
-109 -114 -278 -275 -376 -360 -197 -171 -251 -232 -308 -348 -56 -114 -74
-197 -74 -340 0 -104 4 -130 27 -198 15 -43 42 -102 60 -130 31 -47 48 -65
129 -133 18 -15 28 -36 33 -70 12 -80 54 -203 102 -296 106 -206 276 -338 435
-338 l48 0 -26 -57 c-101 -229 -56 -477 101 -553 35 -17 45 -27 45 -47 0 -46
51 -177 96 -244 83 -126 234 -219 353 -219 30 0 43 -8 81 -48 25 -27 56 -56
69 -65 l25 -16 -60 -63 c-77 -81 -128 -152 -160 -223 -19 -40 -30 -55 -41 -51
-8 3 -30 6 -49 6 l-34 0 0 200 c0 227 -4 244 -69 303 -76 69 -225 119 -458
154 -167 25 -694 25 -869 0 -289 -41 -481 -120 -520 -214 -12 -26 -14 -186
-14 -875 0 -794 1 -845 19 -883 78 -172 444 -280 951 -279 284 0 454 21 642
80 l78 25 93 -46 c50 -24 119 -52 152 -61 87 -23 292 -29 384 -11 l74 14 -7
-81 c-14 -189 -28 -413 -34 -581 l-7 -180 -60 -7 c-73 -10 -201 -2 -315 18
-307 54 -576 226 -724 461 -38 62 -65 76 -134 71 -39 -3 -69 -11 -90 -26 -43
-31 -106 -131 -143 -227 -92 -236 -76 -495 42 -684 l40 -64 -23 -24 c-37 -39
-31 -112 16 -208 48 -98 187 -242 291 -303 119 -70 275 -112 413 -112 58 0 62
-2 62 -23 0 -52 70 -101 180 -127 103 -25 320 -10 423 29 l27 11 -7 -43 c-15
-79 -7 -188 16 -250 32 -83 114 -168 205 -212 120 -58 204 -70 491 -70 313 1
441 22 585 95 69 35 157 125 189 194 48 102 80 292 101 606 7 91 13 175 16
186 4 21 6 21 226 19 l223 -3 17 -208 c21 -257 52 -468 80 -543 79 -212 237
-308 563 -341 163 -17 460 -8 582 18 209 45 336 148 378 307 30 116 16 223
-46 350 l-39 81 21 209 c14 145 22 315 26 550 4 310 6 340 21 338 9 -2 305
-50 657 -107 893 -146 1284 -206 1327 -206 57 0 86 32 101 108 11 61 12 62 44
62 22 0 43 9 62 28 30 27 31 30 78 351 l48 324 66 22 c236 79 382 304 382 590
0 223 -86 407 -230 492 -24 14 -43 31 -43 39 0 8 13 103 30 211 126 847 121
796 90 836 -32 40 -86 54 -375 97 -148 21 -472 69 -720 105 -911 134 -1047
154 -1051 158 -2 2 1 28 8 58 11 54 13 56 58 72 62 22 125 84 158 155 25 53
27 67 27 187 -1 119 -3 137 -32 218 l-31 87 37 0 c111 1 213 50 313 151 65 65
85 94 132 191 31 63 65 152 77 201 20 83 23 88 58 104 62 29 157 133 196 215
52 110 68 198 62 353 -5 147 -32 258 -93 381 -52 106 -125 187 -312 347 -92
79 -241 221 -332 318 -91 96 -201 209 -245 252 -337 329 -637 452 -955 391
l-85 -17 -103 52 c-186 94 -401 170 -587 211 -222 48 -357 61 -645 65 -151 1
-293 1 -315 -1z m660 -179 c337 -43 565 -110 838 -247 l139 -69 61 22 c94 33
240 37 346 10 215 -54 327 -136 701 -512 162 -163 348 -342 412 -398 153 -132
225 -207 270 -282 124 -204 130 -516 12 -692 l-28 -42 -13 70 c-13 71 -43 115
-79 115 -30 0 -54 -38 -54 -86 0 -73 -28 -250 -55 -349 -53 -190 -159 -347
-270 -397 -119 -54 -252 -15 -375 111 -145 147 -216 365 -260 796 -34 330 -73
532 -152 773 -42 130 -71 176 -120 188 -34 7 -68 -25 -68 -64 0 -16 12 -62 26
-103 76 -221 122 -457 169 -868 38 -338 91 -544 176 -687 42 -72 146 -179 218
-225 43 -27 58 -45 78 -89 68 -153 98 -310 74 -396 -12 -43 -49 -105 -67 -111
-5 -2 -18 21 -28 52 -20 65 -72 125 -108 125 -52 0 -62 -45 -34 -141 31 -105
15 -241 -41 -336 -46 -79 -145 -153 -205 -153 -21 0 -23 4 -20 44 3 38 0 49
-21 70 -17 17 -32 24 -44 19 -25 -8 -53 -34 -53 -47 0 -6 -13 -38 -29 -72 -56
-120 -209 -231 -366 -269 -102 -25 -134 -74 -80 -125 22 -20 31 -22 94 -18 75
6 167 43 275 112 31 20 56 31 56 26 0 -11 -56 -391 -66 -449 -4 -25 -8 -31
-17 -22 -17 17 -52 13 -71 -8 -10 -11 -25 -50 -33 -88 -32 -140 -122 -290
-246 -411 -82 -79 -100 -88 -87 -43 11 38 -4 102 -26 118 -42 31 -73 7 -103
-78 -65 -189 -193 -344 -345 -417 -62 -30 -129 -47 -145 -37 -5 3 -2 23 6 44
21 54 11 108 -23 123 -35 16 -49 6 -111 -82 -115 -163 -239 -254 -402 -295
-56 -15 -66 -15 -118 0 -144 42 -294 145 -450 309 -55 58 -107 106 -116 106
-48 0 -62 -81 -27 -159 l20 -44 -46 7 c-163 22 -367 221 -435 423 -31 95 -86
125 -124 70 -17 -25 -20 -84 -5 -122 10 -27 10 -27 -27 -21 -100 18 -214 108
-266 212 -40 80 -50 152 -43 310 4 102 3 143 -6 152 -20 20 -63 14 -104 -14
-42 -29 -121 -54 -169 -53 -21 0 -45 13 -80 45 l-50 44 35 68 c23 45 65 99
128 164 l93 96 34 -14 c50 -20 95 -18 122 8 48 45 20 99 -64 123 -145 42 -236
119 -300 255 -22 47 -48 102 -56 122 -32 74 -103 55 -114 -30 -3 -22 -1 -54 5
-70 6 -17 8 -33 5 -36 -12 -11 -126 59 -160 98 -97 112 -127 295 -73 439 23
59 26 107 8 125 -7 7 -26 12 -44 12 -38 0 -67 -30 -103 -108 -14 -29 -28 -52
-31 -52 -19 0 -50 102 -50 165 0 128 84 306 195 415 177 173 247 361 295 798
41 361 78 528 194 868 42 122 76 234 76 248 0 29 -31 66 -55 66 -32 0 -73 -30
-89 -65 -31 -65 -127 -336 -162 -459 -48 -166 -80 -337 -104 -556 -24 -217
-43 -337 -71 -438 -72 -268 -230 -452 -388 -452 -50 0 -147 49 -200 100 -138
135 -218 362 -228 643 -5 131 -9 162 -23 180 -38 47 -111 -17 -125 -110 -6
-44 -8 -46 -21 -28 -41 56 -68 224 -53 331 25 181 71 249 314 464 103 90 289
270 414 399 321 332 433 425 603 498 153 67 320 80 425 33 64 -28 101 -25 159
12 66 42 222 120 314 156 227 90 499 149 788 172 149 12 503 4 647 -15z
m-3285 -4035 c203 -18 404 -64 462 -104 21 -15 21 -16 -18 -32 -53 -23 -108
-21 -177 5 -109 41 -240 54 -527 55 -195 0 -296 -5 -382 -17 -141 -20 -239
-42 -278 -62 -26 -14 -33 -13 -74 5 -25 10 -46 22 -46 24 0 3 22 17 50 31 89
45 231 73 500 98 84 8 385 6 490 -3z m550 -977 c0 -502 -4 -740 -11 -768 -16
-56 -66 -98 -157 -134 -264 -101 -750 -121 -1130 -45 -181 36 -271 77 -314
142 -17 25 -18 77 -18 770 0 718 1 743 18 737 78 -24 228 -56 337 -71 184 -25
676 -26 855 -1 151 22 276 48 350 75 30 11 58 21 63 21 4 1 7 -326 7 -726z
m4673 553 c14 -14 20 -62 33 -273 4 -57 10 -103 13 -103 3 0 21 38 40 83 63
150 113 247 133 258 31 17 68 -4 68 -36 0 -15 -26 -74 -59 -133 -32 -59 -82
-153 -110 -209 -54 -108 -61 -114 -114 -94 -29 11 -28 5 -63 276 l-25 200 26
22 c31 27 39 28 58 9z m912 -157 c13 -19 -5 -78 -25 -84 -45 -14 -74 30 -50
76 12 21 64 27 75 8z m145 -24 c10 -13 10 -35 -3 -118 -9 -56 -23 -154 -32
-217 -18 -127 -28 -146 -67 -131 -14 5 -29 14 -32 19 -3 6 5 83 19 172 31 198
44 261 57 278 14 17 43 15 58 -3z m-611 -55 c46 -23 71 -70 71 -133 0 -64 -12
-70 -106 -52 -104 20 -114 19 -114 -5 0 -49 80 -79 130 -48 44 28 79 -32 39
-68 -16 -15 -35 -19 -83 -18 -68 1 -113 20 -145 60 -37 47 -23 182 26 236 43
49 119 60 182 28z m-4854 -31 c99 -46 167 -145 180 -259 13 -109 -31 -254 -96
-319 -35 -36 -110 -74 -166 -86 l-33 -7 0 352 0 352 37 -7 c20 -3 55 -15 78
-26z m5058 -1 c12 -7 45 -12 72 -12 44 -1 50 -4 53 -24 5 -33 -15 -52 -55 -52
-55 0 -78 -32 -93 -129 -7 -45 -19 -88 -26 -95 -13 -14 -60 -10 -69 4 -3 5 4
54 15 110 11 56 20 109 20 118 0 9 5 34 11 55 11 40 31 47 72 25z m243 -43 c6
-14 -16 -186 -34 -275 -6 -30 -11 -35 -40 -38 -23 -2 -34 1 -39 14 -7 19 23
253 38 291 6 17 16 23 39 23 18 0 33 -6 36 -15z m422 -62 c64 -47 80 -143 37
-229 -30 -60 -67 -84 -132 -84 -90 0 -153 63 -153 153 0 76 42 155 95 178 33
15 123 4 153 -18z m297 -43 c24 -13 33 -14 42 -5 12 13 59 9 68 -5 7 -11 -45
-298 -61 -333 -26 -60 -71 -97 -117 -97 -54 0 -118 23 -148 52 -34 35 -37 63
-8 78 16 9 26 8 46 -7 67 -47 94 -53 130 -28 11 8 23 23 26 34 4 17 0 18 -33
14 -51 -7 -104 12 -135 48 -21 26 -25 41 -25 92 0 65 23 131 53 156 40 32 107
33 162 1z m-5632 -67 c13 -170 54 -262 162 -369 98 -98 212 -155 319 -162 75
-5 75 -5 102 -46 73 -110 154 -184 276 -250 118 -64 252 -84 336 -50 l39 15
74 -56 c90 -68 271 -159 357 -179 52 -12 72 -12 125 -1 96 20 180 58 291 132
l101 68 105 0 c95 1 112 4 183 33 143 58 261 152 341 270 43 62 50 68 84 70
72 5 141 49 257 166 88 89 118 126 145 183 19 39 37 72 40 72 4 1 -15 -140
-42 -311 -26 -172 -70 -466 -98 -653 -28 -187 -62 -403 -76 -480 -14 -77 -27
-165 -28 -196 -2 -107 69 -171 225 -199 l67 -12 6 -40 c9 -55 5 -494 -5 -643
-5 -66 -16 -176 -25 -245 -31 -248 -32 -231 14 -307 56 -93 64 -117 64 -198
-1 -78 -11 -114 -49 -163 -24 -32 -98 -92 -114 -92 -4 0 -5 36 -2 80 12 165
-45 295 -120 276 -43 -10 -52 -39 -32 -104 23 -70 23 -188 1 -230 -28 -54 -49
-62 -163 -62 l-103 0 0 93 c0 196 -55 305 -143 283 -35 -8 -42 -40 -22 -96 18
-49 31 -203 21 -244 -6 -25 -9 -26 -82 -26 -95 0 -214 24 -282 58 -106 51
-156 136 -186 309 -19 109 -48 462 -44 534 l3 52 61 21 c80 27 94 40 94 86 0
59 -16 66 -115 52 -277 -40 -632 -34 -842 14 -70 16 -107 8 -118 -26 -16 -51
28 -94 129 -126 29 -9 29 -9 27 -84 -3 -119 -20 -368 -32 -455 -31 -238 -77
-324 -205 -381 -66 -29 -187 -54 -263 -54 l-60 0 -11 41 c-12 43 -9 74 17 202
20 98 11 127 -40 127 -70 0 -108 -89 -115 -269 l-5 -124 -111 6 c-103 5 -113
8 -133 31 -44 52 -54 145 -27 248 20 79 16 109 -18 128 -75 41 -130 -70 -126
-253 3 -123 -1 -128 -69 -78 -131 95 -151 282 -47 432 25 36 26 44 21 116 -3
43 -12 130 -21 193 -29 214 -37 344 -43 691 -8 463 8 719 78 1293 17 137 28
259 25 272 -14 56 -90 68 -121 20 -12 -18 -73 -376 -75 -438 0 -3 -21 -14 -47
-23 -71 -26 -280 -32 -361 -11 -71 18 -162 55 -162 66 0 4 9 15 21 26 50 45
63 91 67 236 l4 136 46 7 c163 24 304 140 364 298 38 101 44 276 12 360 -4 11
2 17 18 20 56 11 55 13 61 -80z m3892 -203 c4 -6 1 -44 -6 -85 -6 -42 -10 -77
-8 -79 2 -2 25 -7 50 -11 l46 -7 7 59 c11 90 16 103 43 109 13 4 28 3 33 -2 7
-8 -33 -369 -45 -401 -6 -18 -40 -16 -55 2 -10 12 -10 31 -2 87 6 40 10 73 9
75 -1 1 -25 5 -54 9 l-51 6 -7 -68 c-8 -74 -17 -94 -45 -94 -38 0 -40 20 -14
195 14 94 32 180 40 193 15 23 48 30 59 12z m852 -174 c-8 -72 -47 -328 -52
-343 -5 -15 -55 -18 -55 -4 0 6 -16 7 -35 4 -94 -15 -135 109 -75 227 31 61
82 78 119 41 18 -18 19 -17 30 55 12 73 20 85 55 76 16 -4 18 -12 13 -56z
m101 31 c7 -8 7 -34 -2 -83 l-12 -70 28 13 c34 18 75 1 96 -37 28 -54 -1 -182
-52 -222 -26 -22 -69 -23 -86 -3 -9 11 -16 13 -24 5 -15 -15 -46 -12 -53 6 -7
20 46 375 59 392 13 15 33 15 46 -1z m-610 -47 c26 -24 28 -82 9 -195 -10 -55
-16 -71 -32 -73 -10 -3 -24 3 -31 12 -9 13 -17 14 -38 6 -55 -21 -103 24 -92
86 9 46 48 74 102 74 48 0 49 2 33 31 -9 17 -17 19 -55 13 -40 -6 -44 -4 -44
14 0 49 105 72 148 32z m116 -6 c9 -3 16 -13 16 -22 0 -12 3 -13 12 -4 15 15
53 15 80 1 20 -11 20 -16 14 -125 -4 -63 -9 -121 -12 -129 -7 -17 -50 -20 -59
-4 -4 5 -1 49 5 96 11 76 11 87 -4 101 -16 16 -18 16 -31 -1 -7 -10 -19 -51
-25 -90 -6 -40 -13 -78 -15 -84 -5 -15 -51 -17 -60 -3 -9 14 35 254 48 262 15
9 12 9 31 2z m1191 -99 c-1 -27 -4 -77 -9 -110 l-8 -60 45 43 c28 27 52 43 63
40 31 -6 28 -38 -6 -73 l-33 -34 13 -81 c14 -89 9 -104 -31 -98 -20 3 -25 11
-32 56 -10 62 -27 64 -43 6 -9 -34 -15 -39 -40 -39 -23 0 -29 4 -28 20 2 38
55 368 60 377 3 5 16 8 27 6 19 -3 22 -9 22 -53z m526 14 c146 -104 144 -485
-4 -654 -33 -39 -129 -100 -145 -93 -5 2 1 66 14 143 12 77 25 161 28 188 l7
47 49 0 c42 0 52 4 74 31 49 58 27 102 -56 114 -42 6 -47 10 -43 29 2 11 9 55
15 96 14 97 19 120 26 120 3 0 19 -9 35 -21z m-908 -48 c22 -22 33 -99 23
-156 -4 -19 -21 -51 -38 -70 -25 -29 -37 -35 -69 -35 -25 0 -46 7 -58 19 -54
54 -45 179 16 240 29 29 38 33 70 28 20 -4 46 -15 56 -26z m223 -26 c45 -28
49 -137 9 -215 -46 -90 -149 -75 -174 24 -19 78 16 177 72 201 33 15 58 12 93
-10z m-6653 -1168 c125 -174 348 -328 600 -412 147 -49 267 -68 440 -68 l147
-1 0 -70 c0 -77 20 -344 45 -600 8 -88 15 -165 15 -172 0 -15 -110 -73 -190
-100 -77 -26 -258 -27 -315 -1 l-40 18 60 32 c72 38 106 91 86 134 -10 22 -16
24 -54 20 -23 -2 -69 -14 -102 -27 -84 -32 -235 -39 -341 -15 -125 27 -216 77
-310 170 -74 73 -123 140 -111 151 3 3 32 -2 65 -10 81 -22 124 -20 156 5 25
20 33 53 18 74 -4 6 -43 31 -87 55 -147 82 -227 190 -260 348 -19 94 -19 163
1 260 24 115 95 272 123 272 5 0 29 -28 54 -63z m4959 -47 c167 -27 515 -83
773 -125 1024 -165 1019 -165 1033 -182 6 -9 12 -25 12 -35 0 -10 -6 -18 -12
-18 -13 0 -531 83 -1028 164 -151 25 -363 59 -470 76 -332 53 -674 110 -692
116 -10 3 -18 9 -18 13 0 11 60 40 82 41 9 0 153 -22 320 -50z"/>
<path d="M4090 8161 c-114 -45 -180 -108 -180 -175 0 -78 39 -86 123 -26 90
64 131 80 220 80 73 0 78 1 89 25 15 33 -1 69 -44 95 -42 26 -144 26 -208 1z"/>
<path d="M5792 8136 c-56 -18 -82 -42 -82 -76 0 -48 31 -64 134 -71 82 -5 99
-10 170 -47 44 -23 89 -42 101 -42 50 0 72 70 37 122 -61 92 -246 151 -360
114z"/>
<path d="M4120 7509 c-66 -26 -113 -99 -131 -204 -22 -128 7 -261 72 -326 94
-94 248 -52 294 80 39 112 27 292 -25 374 -45 71 -138 105 -210 76z"/>
<path d="M5865 7505 c-5 -2 -22 -6 -37 -9 -37 -8 -95 -60 -118 -106 -28 -56
-45 -194 -32 -267 24 -137 82 -204 183 -211 73 -5 110 9 153 60 51 59 69 129
64 251 -3 89 -7 110 -33 162 -21 41 -43 68 -70 87 -37 24 -87 39 -110 33z"/>
<path d="M4858 6940 c-147 -14 -248 -78 -282 -178 -20 -57 -20 -95 -1 -158 27
-92 153 -206 275 -250 l50 -18 0 -87 c0 -78 -3 -90 -25 -117 -13 -16 -48 -40
-77 -53 -72 -31 -198 -32 -279 0 -72 27 -150 100 -190 176 -35 68 -43 75 -81
75 -33 0 -68 -42 -68 -82 0 -82 134 -241 250 -296 162 -76 374 -65 505 26 l40
28 55 -38 c231 -162 591 -82 752 166 45 69 50 118 17 160 -17 22 -28 27 -58
24 -31 -3 -39 -9 -61 -50 -85 -157 -220 -236 -389 -226 -82 5 -166 36 -209 77
-21 21 -22 30 -20 118 l3 95 55 21 c126 46 248 158 276 252 17 59 9 138 -20
192 -18 35 -72 86 -111 106 -70 35 -255 52 -407 37z"/>
<path d="M1681 4787 c-19 -6 -49 -26 -68 -44 -32 -33 -33 -36 -33 -118 l0 -84
147 -3 c131 -3 148 -5 151 -20 3 -17 -13 -18 -220 -18 -283 0 -306 -8 -360
-125 -19 -43 -23 -66 -22 -155 2 -200 75 -299 223 -300 50 0 53 1 48 23 -11
44 9 197 30 225 48 64 58 67 266 72 174 5 196 8 234 28 71 37 78 61 78 257 0
163 -1 171 -24 204 -43 59 -85 71 -261 70 -85 -1 -170 -6 -189 -12z m67 -79
c17 -17 15 -59 -4 -86 -17 -25 -71 -31 -92 -10 -17 17 -15 59 4 86 17 25 71
31 92 10z"/>
<path d="M7712 4644 c-12 -8 -22 -19 -22 -23 0 -7 87 -31 111 -31 16 0 10 29
-11 50 -24 24 -48 25 -78 4z"/>
<path d="M8550 4505 c-8 -9 -16 -42 -18 -74 -5 -63 4 -77 55 -87 40 -8 68 19
78 76 6 34 3 48 -12 69 -24 32 -82 41 -103 16z"/>
<path d="M8881 4461 c-44 -44 -38 -138 10 -155 60 -21 99 16 99 93 0 47 -16
69 -56 77 -24 5 -37 1 -53 -15z"/>
<path d="M7939 3944 c-8 -10 -14 -41 -14 -73 0 -53 1 -56 27 -59 33 -4 49 22
51 84 3 59 -33 85 -64 48z"/>
<path d="M8185 3896 c-11 -16 -15 -41 -13 -73 3 -44 5 -48 28 -48 30 0 50 34
50 86 0 59 -37 79 -65 35z"/>
<path d="M7493 3920 c-24 -10 -31 -34 -13 -45 15 -9 60 22 60 40 0 17 -14 18
-47 5z"/>
<path d="M8420 3875 c-15 -18 -24 -86 -16 -119 8 -31 40 -35 55 -8 15 28 24
90 17 117 -7 28 -36 34 -56 10z"/>
<path d="M8649 3844 c-9 -10 -14 -41 -14 -78 0 -56 2 -61 23 -64 18 -3 26 4
37 32 34 82 -1 164 -46 110z"/>
</g>
</svg>
